<svg xmlns:xlink="http://www.w3.org/1999/xlink" xmlns="http://www.w3.org/2000/svg" viewBox="0 0 24 20" width="24" height="24"> <path d="M18 0H5.99995V2H4.74604C3.29717 2 1.97266 2.8186 1.3247 4.11451C0.403685 5.95654 1.10636 8.19711 2.91435 9.18328L11 13.5936V16.3333L5.99995 18V20H18V18L13 16.3333V13.5936L21.0856 9.18328C22.8936 8.19711 23.5963 5.95654 22.6753 4.11451C22.0273 2.8186 20.7028 2 19.2539 2H18L18 0ZM18 8.5882L18 4H19.2539C19.9453 4 20.5773 4.39059 20.8864 5.00893C21.3259 5.88786 20.9906 6.95694 20.1279 7.42749L18 8.5882ZM5.99995 4V8.58817L3.87205 7.42749C3.00938 6.95694 2.67409 5.88786 3.11356 5.00893C3.42273 4.39059 4.05472 4 4.74604 4H5.99995ZM12 2L13 4.99997L16 5.99996L13 6.99995L12 9.99991L11 6.99995L8 5.99996L11 5L12 2Z" fill="#121217" fill-opacity="0.6" stroke-opacity="0.6" stroke="#121217" stroke-width="0px"></path> </svg>