<svg xmlns:xlink="http://www.w3.org/1999/xlink" xmlns="http://www.w3.org/2000/svg" viewBox="0 0 1024 1024" width="24" height="24"> <path d="M512 42.666667c61.568 0 120.405333 11.861333 174.250667 33.408l-60.544 60.586666c-8.362667 8.362667-9.856 20.565333-3.328 27.093334L878.933333 420.309333c6.528 6.528 18.730667 5.034667 27.093334-3.328l51.882666-51.882666C973.098667 411.306667 981.333333 460.672 981.333333 512c0 259.2-210.133333 469.333333-469.333333 469.333333S42.666667 771.2 42.666667 512 252.8 42.666667 512 42.666667z m62.549333 176.426666L369.066667 314.453333a45.397333 45.397333 0 0 0-21.034667 23.722667l-127.701333 376.021333a30.677333 30.677333 0 0 0 6.570666 28.330667l16.170667 16.128a16.469333 16.469333 0 0 0 23.765333-0.853333l243.797334-251.306667a40.661333 40.661333 0 0 0 9.386666-29.525333s-5.504-37.76 15.189334-58.453334c25.429333-25.429333 65.962667-26.112 90.538666-1.536 24.576 24.576 23.893333 65.109333-1.536 90.538667-20.693333 20.693333-58.453333 15.146667-58.453333 15.146667a40.704 40.704 0 0 0-29.610667 9.386666l-251.946666 243.797334a16.426667 16.426667 0 0 0-0.853334 23.765333l16.682667 16.64a30.677333 30.677333 0 0 0 28.330667 6.613333l376.192-128.170666c9.045333-2.901333 19.712-12.373333 23.722666-21.034667l95.274667-205.482667a26.325333 26.325333 0 0 0-4.565333-27.648l-216.832-216.789333a26.282667 26.282667 0 0 0-27.605334-4.608z" stroke-opacity="0.6" stroke="#121217" fill-opacity="0.6" fill="#121217" stroke-width="0px"></path> </svg>