<svg xmlns:xlink="http://www.w3.org/1999/xlink" xmlns="http://www.w3.org/2000/svg" class="_primary_theme_item" width="7987"  height="1024" ><defs><symbol id="i-logolong" viewBox="0 0 7987 1024" stroke-opacity="0.9" stroke="#121217" fill-opacity="0.9" fill="#121217" stroke-width="0px"><path d="M3174.808013 26.828787c0-6.348797 5.273597-11.519994 11.775994-11.519995h45.670377c17.612791 0 34.406383 7.167996 46.335977 19.86559l546.406127 578.969311a3.942398 3.942398 0 0 0 2.867198 1.228799 3.891198 3.891198 0 0 0 3.942398-3.839998V26.828787c0-6.348797 5.273597-11.519994 11.775994-11.519995h180.99191c6.553597 0 11.775994 5.171197 11.775994 11.519995v973.567513a11.673594 11.673594 0 0 1-11.775994 11.519994h-48.025576c-17.510391 0-34.252783-7.116796-46.131177-19.60959L3397.988701 433.151783a3.942398 3.942398 0 0 0-2.867199-1.177599 3.891198 3.891198 0 0 0-3.942398 3.839998v564.530918a11.673594 11.673594 0 0 1-11.775994 11.519994h-192.767903c-6.553597 0-11.775994-5.119997-11.775994-11.519994V26.828787z m-319.795041 458.086171c126.975937 60.92797 182.476709 165.683117 161.94552 304.025448-16.793592 113.049543-116.531142 207.615896-238.796681 227.020686-31.743984 5.119997-63.795168 7.577596-95.897552 7.372796-135.679932-0.4096-271.564664-0.4096-407.551796 0-18.841591 0-29.900785 0-29.849585-26.111987 1.023999-317.388641 1.023999-634.521283 0-951.500324 0-22.015989 7.167996-25.497587 26.419186-25.343987 140.54393 0.7168 281.087859-1.689599 421.887789 1.075199 111.718344 2.201599 203.468698 47.462376 256.511872 153.804723 50.073575 99.99355 20.99199 219.69909-66.201567 287.487857-9.062395 7.577596-18.534391 14.643193-28.467186 22.169589z m-408.063795-285.644658a7.782396 7.782396 0 0 0-7.782397 7.679997v195.583902c0 4.249598 3.481598 7.679996 7.833596 7.679996h208.486296c58.009571 0.1024 105.164747-34.867183 104.294348-107.417546-0.8704-72.550364-56.780772-102.758349-104.294348-103.475149-34.867183-0.512-104.447948-0.512-208.486296-0.0512z m0.051199 383.334209a7.782396 7.782396 0 0 0-7.833596 7.679996v241.459079c0 4.249598 3.481598 7.679996 7.833596 7.679996H2662.398669c67.686366 0 137.420731-47.769576 134.758332-130.303935-2.713599-82.534359-63.641568-126.515137-134.758332-126.515136h-215.398293zM1329.714535 52.428774c0-24.115188 3.071998-33.484783 31.743984-33.279984 141.158329 1.023999 367.923016 1.023999 680.29406 0.0512 13.004793 0 23.603188 10.239995 23.654388 22.937589V195.481502c0 12.697594-10.598395 23.039988-23.551988 23.039989h-479.74376a23.295988 23.295988 0 0 0-23.654388 22.937588v153.343924c0 12.697594 10.598395 22.988789 23.603188 22.988788h464.025368c13.004793 0 23.551988 10.291195 23.551988 23.039989v141.823929c0 12.646394-10.547195 22.937589-23.551988 22.937588h-464.025368a23.295988 23.295988 0 0 0-23.551988 23.039989v164.812717c0 12.697594 10.547195 22.988789 23.551988 22.988789h479.74376c13.004793 0 23.603188 10.291195 23.603188 23.039988v153.241524c0 12.697594-10.598395 23.039988-23.551988 23.039988h-0.1024c-310.886245-0.512-540.00613-0.512-687.359656 0-26.879987 0-24.217588-13.465593-24.166388-30.105585 0.1024-149.247925 0.6144-785.714807-0.512-933.221933z m5071.050265 0c0-24.115188 3.020798-33.484783 31.743984-33.279984 141.158329 1.023999 367.871816 1.023999 680.29406 0.0512 13.004793 0 23.603188 10.239995 23.654388 22.937589V195.481502c0 12.697594-10.598395 23.039988-23.603188 23.039989h-479.743761a23.295988 23.295988 0 0 0-23.603188 22.937588v153.343924c0 12.697594 10.598395 22.988789 23.603188 22.988788h464.025368c13.004793 0 23.551988 10.291195 23.551989 23.039989v141.823929c0 12.646394-10.547195 22.937589-23.551989 22.937588h-464.025368a23.295988 23.295988 0 0 0-23.603188 23.039989v164.812717c0 12.697594 10.598395 22.988789 23.603188 22.988789h479.743761c13.004793 0 23.551988 10.291195 23.551988 23.039988v153.241524c0 12.697594-10.547195 23.039988-23.551988 23.039988-310.937445-0.512-540.05733-0.512-687.410857 0-26.879987 0-24.268788-13.465593-24.166388-30.105585 0.1024-149.247925 0.5632-785.714807-0.511999-933.221933zM7312.380344 20.63359h170.291115c13.004793 0 23.551988 10.291195 23.551988 23.039988V821.247589c0 6.348797 5.324797 11.468794 11.827194 11.468795l457.318171-1.2288c6.502397 0 11.775994 5.119997 11.827194 11.468795v169.523115a11.673594 11.673594 0 0 1-11.775994 11.519994h-663.039668c-6.502397 0-11.775994-5.119997-11.775994-11.519994V32.153584c0-6.348797 5.273597-11.519994 11.775994-11.519994z m-2084.043758 488.601355c-4.095998 283.340658-238.079881 505.650947-525.874937 502.630149-277.094261-2.867199-515.686142-223.590288-512.614144-506.367747 3.174398-284.057458 237.567881-508.057346 521.215739-505.497347 287.078256 2.559999 521.369339 233.215883 517.273342 509.234945zM4709.271245 191.641504a319.07824 319.07824 0 0 0-322.713438 315.903842c-1.894399 170.649515 143.001528 310.886245 318.003041 312.678244 179.71191 1.894399 324.505438-136.191932 327.116636-313.702243 2.508799-169.267115-143.820728-313.241443-322.406239-314.879843zM5240.31738 39.06558h191.590304c13.465593 0 25.702387 7.423996 31.743984 19.097591l289.894255 565.452517a7.987196 7.987196 0 0 0 14.079993-0.0512l286.873457-565.247717a35.481582 35.481582 0 0 1 31.743984-19.251191h179.71191c6.553597 0 11.827194 5.171197 11.827194 11.519995 0 1.791999-0.4096 3.583998-1.279999 5.171197l-475.647762 917.247541a47.769576 47.769576 0 0 1-84.019158 0.3584l-486.962957-917.503541a11.366394 11.366394 0 0 1 5.068798-15.513592 12.031994 12.031994 0 0 1 5.375997-1.28z m-4348.311426 599.039701V230.348685c0-86.425557 65.791967-154.623923 197.324701-204.697498a11.929594 11.929594 0 0 1 4.300798-0.819199c6.502397 0 11.775994 5.171197 11.775994 11.519994v931.583534a30.207985 30.207985 0 0 1-7.321596 19.71199 32.051184 32.051184 0 0 1-44.339178 3.788798l-500.991749-409.394995-500.99175 413.388593a31.948784 31.948784 0 0 1-20.32639 7.270397 31.078384 31.078384 0 0 1-31.487984-30.668785V37.734381C0 36.198382 0.3072 34.662383 0.9216 33.279983A11.929594 11.929594 0 0 1 16.383992 27.135986c121.190339 49.356775 181.759909 117.094341 181.759909 203.263899 0 137.574331 0.1536 290.201455 0.4096 399.4622L526.847737 339.96783c23.756788-16.383992 27.340786-16.383992 50.483174 0l314.726243 298.188651z" stroke="#ffffff" fill-opacity="0.9" fill="#ffffff" stroke-width="0px" stroke-opacity="0.9"></path></symbol></defs><use xlink:href="#i-logolong" stroke="#FFFFFF" fill="#FFFFFF" stroke-width="0px"></use></svg>