<svg xmlns:xlink="http://www.w3.org/1999/xlink" xmlns="http://www.w3.org/2000/svg" viewBox="0 0 1024 1024" width="24" height="24"> <path d="M896 289.706667V168.362667c0-22.186667-24.704-40.405333-54.869333-40.405334H182.869333C152.704 128 128 146.176 128 168.405333V289.706667c0 22.272 24.704 40.448 54.869333 40.448h658.261334c30.165333 0 54.869333-18.176 54.869333-40.448z m-256 565.888V734.293333c0-22.186667-24.704-40.405333-54.869333-40.405333H182.869333c-30.165333 0-54.869333 18.176-54.869333 40.405333v121.301334c0 22.186667 24.704 40.405333 54.869333 40.405333h402.261334c30.165333 0 54.869333-18.176 54.869333-40.405333z m128-282.965334V451.413333c0-22.229333-24.704-40.405333-54.869333-40.405333H182.869333c-30.165333 0-54.869333 18.176-54.869333 40.405333v121.258667c0 22.229333 24.704 40.405333 54.869333 40.405333h530.261334c30.165333 0 54.869333-18.176 54.869333-40.405333z" stroke-opacity="0.6" stroke="#121217" fill-opacity="0.6" fill="#121217" stroke-width="0px"></path> </svg>